<svg xmlns="http://www.w3.org/2000/svg" xmlns:xlink="http://www.w3.org/1999/xlink" version="1.1" x="0px" y="0px" viewBox="0 0 26 32.5" enable-background="new 0 0 26 26" xml:space="preserve"><g><path d="M13.99955,5.9927v-4c0-0.5528-0.4478-1-1-1c-0.5523,0-1,0.4472-1,1v4c0,0.5527,0.4477,1,1,1   C13.55175,6.9927,13.99955,6.5454,13.99955,5.9927z"/><path d="M13.99955,24.0073v-4c0-0.5527-0.4478-1-1-1c-0.5523,0-1,0.4473-1,1v4c0,0.5527,0.4477,1,1,1   C13.55175,25.0073,13.99955,24.56,13.99955,24.0073z"/><path d="M24.00735,12.0005h-4c-0.5523,0-1,0.4472-1,1c0,0.5527,0.4477,1,1,1h4c0.5522,0,1-0.4473,1-1   C25.00735,12.4477,24.55955,12.0005,24.00735,12.0005z"/><path d="M1.99265,13.9985l4,0.001c0.5523,0,1-0.4473,1-1c0-0.5518-0.4472-1-1-1l-4-0.001c-0.5522,0-1,0.4473-1,1   C0.99265,13.5503,1.43995,13.9985,1.99265,13.9985z"/><path d="M15.99875,20.4199v2.1299c3.1-0.98,5.56-3.44,6.53-6.5498h-2.12C19.59875,18.0097,17.99875,19.6098,15.99875,20.4199z"/><path d="M3.44875,10h2.13c0.81-2,2.42-3.6001,4.42-4.4102V3.4697C6.88875,4.4399,4.42875,6.8999,3.44875,10z"/><path d="M22.52875,10c-0.98-3.1001-3.44-5.5498-6.53-6.5303v2.1304c2,0.81,3.59,2.4096,4.4,4.3999H22.52875z"/><path d="M3.44875,16c0.97,3.1201,3.43,5.5801,6.55,6.5498v-2.1196c-2.01-0.8101-3.62-2.4102-4.43-4.4302H3.44875z"/><circle cx="12.98485" cy="13.0146" r="3"/></g><text x="0" y="41" fill="#000000" font-size="5px" font-weight="bold" font-family="'Helvetica Neue', Helvetica, Arial-Unicode, Arial, Sans-serif">Created by Vectors Point</text><text x="0" y="46" fill="#000000" font-size="5px" font-weight="bold" font-family="'Helvetica Neue', Helvetica, Arial-Unicode, Arial, Sans-serif">from the Noun Project</text></svg>